<?xml version="1.0" encoding="utf-8"?>
<!-- Generator: Adobe Illustrator 27.9.0, SVG Export Plug-In . SVG Version: 6.00 Build 0)  -->
<svg version="1.1" id="Layer_1" xmlns="http://www.w3.org/2000/svg" xmlns:xlink="http://www.w3.org/1999/xlink" x="0px" y="0px"
	 viewBox="0 0 43.5 16.3" style="enable-background:new 0 0 43.5 16.3;" xml:space="preserve">
<path d="M1.2,13.7c-0.6-0.5-0.9-1.2-0.9-2c0-1.3,1-3,2.6-3.6C3.4,8,4.1,7.8,4.4,7.8c0.1,0,0.3,0.1,0.1,0.2c-1.4,1.2-2.3,2.9-2.3,4
	c0,0.3,0,0.5,0.1,0.7c0.9-0.4,2.1-1.3,3.7-3.7c2.9-4.3,3.8-5.7,4.2-6.7c0.1-0.3,0.3-0.4,0.5-0.3c0.2,0.1,0.4,0.2,0.7,0.5
	c0.4,0.4,0.3,1.2-0.1,2c-0.5,0.9-1.3,2.2-2.4,4c-2.7,4.2-4.6,5.5-6.4,5.5C2,14.1,1.6,14,1.2,13.7z"/>
<path d="M9.2,13.1c-0.7-0.7-0.7-1,0.4-2.9c0.7-1,1.4-2.2,1.8-2.6c0.1-0.1,0.1-0.1,0.2-0.1C12,7.5,13,7.5,13,8.2
	c0,0.3-0.3,0.9-0.9,1.7c-0.9,1.3-1.4,2.1-1.6,2.7c0.7-0.1,1.7-0.5,3.1-2.4l0-0.1c0.1-0.1,0.1-0.2,0.2-0.1l0,0c0.1,0.1,0.1,0.2,0,0.3
	l0,0.1c-0.7,1.2-2.5,3.2-3.6,3.2C9.8,13.6,9.6,13.5,9.2,13.1z M12.7,5.9c0.2-0.5,0.6-1,0.9-1.4c0.2-0.3,0.4-0.4,0.5-0.3
	c0.3,0.1,0.7,0.3,0.9,0.5c0.2,0.1,0.2,0.2,0.1,0.4c-0.4,0.4-0.9,0.9-1,1.1c-0.2,0.3-0.5,0.3-0.7,0.3c-0.2,0-0.5-0.1-0.7-0.2
	C12.6,6.1,12.6,6,12.7,5.9z"/>
<path d="M17.1,13.7c-0.2,0-0.5-0.2-0.8-0.5C16,12.8,16,12.5,16.1,12c0.3-0.7,1.4-2,2.3-3.4c-0.9,0.6-2.5,2-3.9,4.3
	c-0.4,0.7-0.7,0.7-1,0.6c-0.2-0.1-0.5-0.3-0.7-0.4c-0.2-0.2-0.4-0.5-0.3-0.9c0.1-0.5,0.6-1.4,1.1-2.1c1.7-2.4,2.1-2.8,2.3-2.8
	c0.3,0,0.6,0.4,1.1,0.7c0.3,0.1,0.4,0.3,0.3,0.6c0.9-0.7,1.5-1,1.8-1c0.2,0,0.4,0.1,0.6,0.2c0.2,0.2,0.3,0.3,0.3,0.7
	c0,0.4-0.2,0.9-0.5,1.4c1.2-1,1.5-1.2,1.9-1.2c0.2,0,0.4,0,0.6,0.2c0.3,0.2,0.5,0.4,0.5,0.7c0,0.7-1.1,1.8-1.5,2.8
	c0.8-0.2,1.6-0.8,2.6-2.1l0-0.1c0.1-0.1,0.1-0.2,0.2-0.1l0,0c0.1,0.1,0.1,0.2,0,0.3l0,0.1c-0.9,1.6-2.4,2.9-3.4,2.9
	c-0.9,0-1.3-0.9-1.3-1.4c0-0.4,0.2-0.8,0.5-1.2c-0.5,0.4-0.9,1-1.7,2.2C17.5,13.5,17.3,13.7,17.1,13.7z"/>
<path d="M24.4,12.8c-0.3,0.5-0.4,0.6-0.6,0.6c-0.4,0-1-0.6-1.1-1c-0.1-0.3,0.1-0.8,1-2.2c1.9-3.1,3.5-5.4,4.8-8.1
	c0.1-0.1,0.2-0.1,0.3-0.1C29.4,2.3,30,2.5,30,3.1c0,0.9-0.5,1.7-2.3,4.5c0.6-0.1,1,0,1.3,0.2c0.9,0.7,0.7,2.3,0.3,3.1
	c-0.9,1.9-2.4,2.8-3.8,2.8C25.1,13.6,24.8,13.3,24.4,12.8z M25.1,12c1.9-0.4,3.5-2.4,3.4-3.6c-0.5,0.1-1.2,0.4-1.9,1
	C26,10.4,25.4,11.4,25.1,12L25.1,12z"/>
<path d="M30.2,13.4c-0.3-0.2-0.5-0.4-0.6-0.6c-0.3-0.6-0.1-1.4,0.8-2.6c0.9-1.2,1.4-2.1,1.6-2.5c0.2-0.4,0.2-0.4,0.4-0.3
	c0.4,0.2,0.9,0.3,1.1,0.4c0.4,0.2,0.5,0.7-0.1,1.4c-0.7,1-2,2.7-2.1,3.6c0.7-0.1,1.7-0.7,3-2.6l0-0.1c0.1-0.1,0.1-0.2,0.2-0.1l0,0
	c0.1,0.1,0.1,0.2,0,0.3l0,0.1c-0.7,1.1-2.5,3.4-3.6,3.4C30.8,13.8,30.5,13.6,30.2,13.4z M33.6,5.9c0.4-0.5,0.9-1.3,1.2-1.8
	c0-0.1,0.1-0.1,0.2-0.1c0.4,0.2,0.7,0.4,0.9,0.7c0.1,0.2,0.1,0.4-0.1,0.6c-0.4,0.4-0.6,0.7-0.8,0.8c-0.3,0.2-0.5,0.2-0.8,0.2
	c-0.2,0-0.5-0.1-0.5-0.1C33.5,6.1,33.5,6,33.6,5.9z"/>
<path d="M34,12.6c-0.2-0.4-0.2-1.2,0.6-2.4c0.3-0.5,0.7-1.1,1.2-1.8c-0.4,0-0.6,0-0.7-0.2C35,8,34.9,7.7,34.9,7.6
	c0-0.1,0.1-0.1,0.3-0.2c0.4,0,0.8-0.1,1.3-0.1c0.7-1,1.4-2,1.7-2.7c0.2-0.4,0.3-0.5,0.4-0.5c0.1,0,0.4,0.1,0.8,0.3
	C39.7,4.5,40,4.8,40,5.1c0,0.4-0.3,1-0.9,1.9c0.5,0,0.9-0.1,1.1-0.1c0.2,0,0.2,0,0.2,0.1c0,0.1,0,0.3-0.1,0.4
	c-0.1,0.1-0.2,0.1-0.4,0.2c-0.4,0.1-0.9,0.2-1.5,0.3c-0.9,1.4-2.1,3.3-2.6,4.5c0.1,0,0.2,0,0.3,0c0.5,0,1.3-0.4,1.9-0.9
	c0,0,0.1,0,0.1,0c0,0,0,0.2,0,0.2c0,0.1,0,0.2-0.1,0.3c-0.4,0.6-1.4,1.6-2.4,1.6C34.9,13.6,34.4,13.2,34,12.6z"/>
<path d="M38.3,14c-0.2-0.2-0.3-0.4-0.3-0.5c-0.1-0.1,0-0.2,0.1-0.3c1.6-0.6,2.3-1.3,2.3-1.8c0-0.6-1-1.1-1-1.9
	c0-0.7,0.5-1.3,1.2-1.7c0.4-0.2,0.9-0.4,1.1-0.4c0.4,0,0.8,0.2,1.1,0.7c0.4,0.6,0.3,0.8,0.2,0.9c-1.1,0.4-2.3,1.1-2.3,1.6
	c0,0.5,1,0.7,1,1.8c0,0.5-0.2,1-0.9,1.6c-0.3,0.3-1,0.6-1.5,0.6C38.8,14.4,38.5,14.2,38.3,14z"/>
</svg>
