<svg version="1.1" id="Layer_1" xmlns="http://www.w3.org/2000/svg"
	xmlns:xlink="http://www.w3.org/1999/xlink" x="0px" y="0px" viewBox="0 0 500 500"
	style="enable-background:new 0 0 500 500;" xml:space="preserve">
	<g>
		<path
			d="M137.1,152.2c6.4,0,12.9-0.5,19.3,0.1c26.9,2.3,51-7.3,74.9-17.6c33.8-14.6,67.6-29.2,100.9-45
		c18.1-8.6,35.7-17.8,55.1-23.7c14.4-4.3,24.4,0.6,34.5,9.6c13,11.5,16.1,28.3,23.2,42.8c12.9,26.4,26.7,52.6,36.4,80.1
		c9.1,25.9,8.2,41.7-19.1,55.7c-25,12.8-51.4,22.8-77,34.4c-24,10.9-47.7,22.3-71.5,33.4c-7.3,3.4-14.6,7-22,10.3
		c-23.8,10.8-38,31.7-53.6,51c-17.2,21.3-37.5,37.3-64.5,44.1c-8.4,2.2-16.5,5.8-25,7.7c-8.2,1.8-13.6-3.5-16.7-10.2
		c-2.9-6.3-0.6-11.8,3.7-17.6c9-12.1,20.3-24.1,24.4-38c5.2-17.9,7.2-38,5.4-56.6c-3.7-39.2-25-68.1-59.7-87.3
		c-18.2-10-37.1-16.3-58.1-14.5c-7.4,0.6-12.9-2.8-15.3-9.2c-2.6-6.8-2.3-13.9,4.4-19.1c2-1.6,3.6-3.8,5.7-5.2
		c22.2-15.1,45-28.4,73.5-25.7c7,0.7,14.1,0.1,21.2,0.1C137.1,152,137.1,152.1,137.1,152.2z M125.2,169.2
		c-13.4,3.7-28.7,7.6-43.8,12.3c-3.2,1-5.4,4.8-8.1,7.3c3.1,1.5,6.1,3.6,9.3,4.3c28.5,6.2,53.1,20.3,71.3,42.1
		c33.1,39.7,45.6,84.9,27.4,135.6c-3.2,9-6.9,17.8-10,26.7c-0.7,2,0,4.4,0,6.7c1.8-0.3,3.6-0.3,5.3-0.9
		c21.5-7.3,38.4-21.7,49.5-40.4c13.2-22.2,23.1-46.5,33.7-70.2c10.6-23.8,20.3-48,30.6-71.9c2.8-6.6,2.7-10.1-5.6-12.2
		c-38.1-9.7-76-20.3-114.1-30.1C156.6,174.8,142.1,172.6,125.2,169.2z M322,221.1c-10.4-3.4-13.2,4.7-16.3,11.6
		C295.3,255.8,285,279,275,302.3c-1.1,2.5-0.1,5.9-0.1,8.9c2.9-0.1,6.3,0.7,8.8-0.4c21.6-9.5,43.1-19.3,64.6-29
		c31.8-14.2,63.6-28.3,95.4-42.7c2.5-1.1,6.6-4.3,6.3-5.4c-1-3.3-3.2-7.3-6-8.7c-21.7-10.5-43.6-20.8-65.7-30.5
		c-4.4-1.9-10.5-2.4-15-0.9c-3.1,1-4.7,6.6-6.9,10.1c-4,6.3-6.7,15.4-12.4,18.2C338.3,225,329.5,221.7,322,221.1z M327.8,202.1
		c7.6-0.4,11.6-3.4,14.6-10.6c6.6-15.8,14.8-30.9,21.9-46.6c6.5-14.4,12.7-29,18.6-43.7c2.8-7,0.3-9.9-6.7-7.8
		c-6,1.8-11.5,5-17.3,7.6c-43.4,19.6-86.9,39.1-130.2,58.9c-3.5,1.6-6.2,5.3-9.2,8c3.1,2,6,4.8,9.5,5.8c22.5,6.7,45.2,13,67.8,19.4
		C307.1,196.1,317.5,199.1,327.8,202.1z M408.9,97.1c-1.8,1.5-3.7,2.3-4.4,3.7c-10.2,20.4-20.7,40.7-30.2,61.4
		c-2.9,6.2-0.6,12,7.1,15.3c21.5,9.2,42.7,19.1,64.1,28.5c3.2,1.4,7.1,1,10.6,1.5c-0.3-4.1,0.3-8.5-1.2-12.1
		c-6.6-16.4-13.5-32.8-20.8-48.9c-6.5-14.4-13.8-28.4-20.8-42.6C412.2,101.7,410.7,99.7,408.9,97.1z" />
		<path d="M23.6,351c-3.2-1.7-9.8-3.3-10-5.6c-0.5-4.1,1.6-10.2,4.8-12.7c25.9-19.9,54.3-34.8,87.4-38.2c3.6-0.4,7.3,1.2,11,1.9
		c-1.5,3.9-1.9,8.9-4.6,11.5c-16.8,16.9-37.3,27.6-60,34.5C43.2,345.1,34.1,347.9,23.6,351z" />
		<path d="M95.9,252.2c1.6,0.9,7.4,2.2,8.3,5.1c1,3.2-1.3,9.2-4.1,11.6c-11.6,10-25.3,16.5-40.3,18.9c-3.8,0.6-8.4-3.5-12.6-5.5
		c1.8-3.8,2.5-9.2,5.5-11.2C65,262.8,76.9,252.7,95.9,252.2z" />
		<path d="M141.7,335.6c-4.4,5.8-6.5,11.3-10.5,13.5c-11.2,6-22.9,11.4-34.9,15.5c-3.7,1.3-9.1-2.2-13.8-3.5c1.6-4.4,2-10.6,5.1-12.8
		c13-8.9,25.3-20.4,42.9-18.4C134.1,330.3,137.4,333.3,141.7,335.6z" />
		<path
			d="M211,214.9c-0.4-8.6,3.2-10.9,10.5-6.5c3.6,2.2,7.3,5.4,9,9.1c7.4,16,14.2,32.3,21,48.6c1.4,3.4,2.7,7.6,1.9,10.9
		c-0.7,3.2-3.8,6.4-6.7,8.1c-1,0.6-5.7-2.6-6.8-4.9c-9.6-19.9-18.8-40-28-60.1C211.1,218.3,211.2,216.2,211,214.9z" />
	</g>
</svg>